<svg width="20" height="30" viewBox="0 0 20 30" fill="none" xmlns="http://www.w3.org/2000/svg">
<path fill-rule="evenodd" clip-rule="evenodd" d="M4.51611 4.26429C4.51611 5.39966 4.74931 6.39637 5.08225 7.2213C5.99648 9.48618 8.42586 10.9438 10.6145 11.7035L10.835 11.7545C10.8458 11.7541 10.8653 11.7495 10.8747 11.7481C11.0471 11.7245 11.0629 11.6527 11.0906 11.6165C11.4194 11.1879 11.6129 8.59181 11.6129 8.05485C11.6129 6.65492 11.1874 5.32619 10.67 4.43066C9.89666 3.09183 8.42329 1.85269 7.05074 1.27262C6.80446 1.16851 6.57116 1.06286 6.28614 0.944078C5.16339 0.476054 5.18722 0.491618 4.98982 1.21173C4.90707 1.5135 4.83142 1.81769 4.75599 2.15081C4.63509 2.68441 4.51611 3.62333 4.51611 4.26429Z" fill="#A2C33D"/>
<path fill-rule="evenodd" clip-rule="evenodd" d="M12.9032 12.2692L13.3751 12.409C14.4856 10.3731 15.6555 9.52526 18.1277 9.52526C18.4648 9.52526 19.3382 9.62769 19.519 9.55908C20.0375 9.36209 20.8367 7.82666 17.585 7.82666C15.677 7.82666 14.0896 8.90856 13.3783 10.44C13.1943 10.8359 12.9032 11.7104 12.9032 12.2692Z" fill="#5B391B"/>
<path fill-rule="evenodd" clip-rule="evenodd" d="M17.7341 21.033C17.7341 25.7788 13.7642 29.6261 8.86706 29.6261C3.96992 29.6261 0 25.7788 0 21.033C0 16.2872 3.96992 12.4399 8.86706 12.4399C13.7642 12.4399 17.7341 16.2872 17.7341 21.033ZM14.2768 21.0328C14.2768 24.1307 11.8548 26.6419 8.86704 26.6419C5.87933 26.6419 3.45731 24.1307 3.45731 21.0328C3.45731 17.935 5.87933 15.4238 8.86704 15.4238C11.8548 15.4238 14.2768 17.935 14.2768 21.0328Z" fill="#BC0051"/>
</svg>
