<svg width="88" height="88" viewBox="0 0 88 88" fill="none" xmlns="http://www.w3.org/2000/svg">
<g filter="url(#filter0_d_3443_1174)">
<circle cx="43" cy="42" r="40" fill="#8CB800"/>
<path d="M60.0472 22H25.9528C25.1697 22 24.4186 22.3111 23.8648 22.8648C23.3111 23.4186 23 24.1697 23 24.9528V59.0472C23 59.8303 23.3111 60.5814 23.8648 61.1352C24.4186 61.6889 25.1697 62 25.9528 62H60.0472C60.8303 62 61.5814 61.6889 62.1352 61.1352C62.6889 60.5814 63 59.8303 63 59.0472V24.9528C63 24.1697 62.6889 23.4186 62.1352 22.8648C61.5814 22.3111 60.8303 22 60.0472 22ZM34.9222 56.075H28.9083V36.9722H34.9222V56.075ZM31.9111 34.325C31.2289 34.3212 30.5632 34.1153 29.9979 33.7335C29.4326 33.3516 28.9931 32.8109 28.7348 32.1795C28.4765 31.5481 28.4111 30.8543 28.5467 30.1858C28.6824 29.5172 29.013 28.9038 29.4969 28.423C29.9808 27.9421 30.5964 27.6154 31.2658 27.4841C31.9352 27.3528 32.6285 27.4227 33.2583 27.685C33.888 27.9473 34.4259 28.3903 34.8041 28.958C35.1823 29.5258 35.3839 30.1928 35.3833 30.875C35.3898 31.3317 35.3042 31.7851 35.1317 32.208C34.9592 32.6309 34.7033 33.0148 34.3793 33.3368C34.0553 33.6587 33.6697 33.9121 33.2457 34.0819C32.8217 34.2517 32.3678 34.3344 31.9111 34.325ZM57.0889 56.0917H51.0778V45.6556C51.0778 42.5778 49.7694 41.6278 48.0806 41.6278C46.2972 41.6278 44.5472 42.9722 44.5472 45.7333V56.0917H38.5333V36.9861H44.3167V39.6333H44.3944C44.975 38.4583 47.0083 36.45 50.1111 36.45C53.4667 36.45 57.0917 38.4417 57.0917 44.275L57.0889 56.0917Z" fill="white"/>
</g>
<defs>
<filter id="filter0_d_3443_1174" x="0" y="0" width="88" height="88" filterUnits="userSpaceOnUse" color-interpolation-filters="sRGB">
<feFlood flood-opacity="0" result="BackgroundImageFix"/>
<feColorMatrix in="SourceAlpha" type="matrix" values="0 0 0 0 0 0 0 0 0 0 0 0 0 0 0 0 0 0 127 0" result="hardAlpha"/>
<feOffset dx="1" dy="2"/>
<feGaussianBlur stdDeviation="2"/>
<feComposite in2="hardAlpha" operator="out"/>
<feColorMatrix type="matrix" values="0 0 0 0 0.188235 0 0 0 0 0.203922 0 0 0 0 0.141176 0 0 0 0.7 0"/>
<feBlend mode="normal" in2="BackgroundImageFix" result="effect1_dropShadow_3443_1174"/>
<feBlend mode="normal" in="SourceGraphic" in2="effect1_dropShadow_3443_1174" result="shape"/>
</filter>
</defs>
</svg>
