<svg width="40" height="41" viewBox="0 0 40 41" fill="none" xmlns="http://www.w3.org/2000/svg">
<path d="M35 20.5C35 28.7843 28.2843 35.5 20 35.5M35 20.5C35 12.2157 28.2843 5.5 20 5.5M35 20.5C35 20.5 25.8579 20.5 20 20.5C14.1421 20.5 5 20.5 5 20.5M20 35.5C11.7157 35.5 5 28.7843 5 20.5M20 35.5C15.2418 31.2044 13.3333 26.9104 13.3333 20.5C13.3333 14.0896 15.2418 9.7956 20 5.5M20 35.5C24.7582 31.2044 26.6667 26.9104 26.6667 20.5C26.6667 14.0896 24.7582 9.7956 20 5.5M5 20.5C5 12.2157 11.7157 5.5 20 5.5" stroke="#303424" stroke-width="3" stroke-linecap="round" stroke-linejoin="round"/>
</svg>
