<svg width="136" height="81" viewBox="0 0 136 81" fill="none" xmlns="http://www.w3.org/2000/svg">
<g clip-path="url(#clip0_548_190)">
<path fill-rule="evenodd" clip-rule="evenodd" d="M76.6326 27.1517L77.65 27.4648C80.0444 22.9055 82.5672 21.007 87.8979 21.007C88.6246 21.007 90.508 21.2363 90.8976 21.0827C92.0158 20.6415 93.7391 17.2031 86.7275 17.2031C82.6135 17.2031 79.1906 19.6259 77.6567 23.0554C77.2602 23.9419 76.6326 25.9003 76.6326 27.1517Z" fill="#5B391B"/>
<path d="M130.324 44.3711C131.872 44.3711 133.273 44.9704 134.287 45.9391C135.302 46.9085 135.93 48.248 135.93 49.7275C135.93 51.207 135.302 52.5466 134.287 53.516C133.273 54.4848 131.872 55.084 130.324 55.084C128.777 55.084 127.375 54.4847 126.361 53.516C125.346 52.5465 124.718 51.207 124.718 49.7275C124.718 48.248 125.346 46.9085 126.361 45.9391C127.376 44.9704 128.777 44.3711 130.324 44.3711ZM134.214 46.0154C133.219 45.0647 131.844 44.4766 130.324 44.4766C128.805 44.4766 127.429 45.0647 126.434 46.0154C125.439 46.9654 124.824 48.2779 124.824 49.7275C124.824 51.1771 125.439 52.4896 126.434 53.4396C127.429 54.3903 128.805 54.9784 130.324 54.9784C131.844 54.9784 133.219 54.3903 134.214 53.4396C135.209 52.4896 135.824 51.1771 135.824 49.7275C135.824 48.2779 135.209 46.9654 134.214 46.0154Z" fill="#8CB800"/>
<path fill-rule="evenodd" clip-rule="evenodd" d="M88.6589 49.4795C88.6589 63.4425 76.8074 74.7618 62.1879 74.7618C47.5683 74.7618 35.7168 63.4425 35.7168 49.4795C35.7168 35.5165 47.5683 24.1973 62.1879 24.1973C76.8074 24.1973 88.6589 35.5165 88.6589 49.4795ZM76.8948 49.4797C76.8948 57.7797 70.3103 64.5082 62.1878 64.5082C54.0653 64.5082 47.4808 57.7797 47.4808 49.4797C47.4808 41.1796 54.0653 34.4511 62.1878 34.4511C70.3103 34.4511 76.8948 41.1796 76.8948 49.4797Z" fill="#BC0051"/>
<path d="M10.3645 46.7254C7.8352 46.7254 5.85601 46.3081 4.42693 45.4734C2.99785 44.6387 1.98611 43.4879 1.39172 42.0208C0.79732 40.5539 0.500122 38.8719 0.500122 36.9748C0.500122 33.4844 1.27158 30.974 2.81448 29.4438C4.35739 27.9136 6.43138 27.1484 9.03662 27.1484C10.6048 27.1484 11.9959 27.414 13.21 27.9451C14.4241 28.4763 15.3726 29.2288 16.0555 30.2026C16.7384 31.1764 17.0798 32.3588 17.0798 33.7499C17.0798 37.7969 14.1964 39.8204 8.4296 39.8204H6.22907C6.43138 40.6045 6.76655 41.2178 7.23449 41.6604C7.70243 42.1031 8.53071 42.3244 9.7195 42.3244C10.3771 42.3244 10.9083 42.2864 11.313 42.2106C11.7177 42.1346 12.1034 42.0588 12.4701 41.9829C12.8369 41.9071 13.2605 41.8691 13.7411 41.8691C14.4241 41.8691 14.9679 41.9892 15.3726 42.2295C15.7772 42.4698 15.9796 42.9567 15.9796 43.6902C15.9796 44.7273 15.5306 45.4923 14.6327 45.9856C13.7348 46.4788 12.3121 46.7254 10.3645 46.7254ZM5.96344 37.0128C6.16584 36.7346 6.39349 36.5512 6.64641 36.4627C6.89932 36.3741 7.2914 36.3298 7.82257 36.3298C9.31479 36.3298 10.3456 36.1844 10.9146 35.8936C11.4838 35.6027 11.7682 35.0778 11.7682 34.3191C11.7682 33.358 11.5027 32.6181 10.9715 32.0996C10.4404 31.5811 9.77011 31.3218 8.96077 31.3218C8.02489 31.3218 7.2914 31.7138 6.76024 32.4979C6.22907 33.282 5.96344 34.787 5.96344 37.0128Z" fill="#BC0051"/>
<path d="M28.4998 46.7254C25.4141 46.7254 23.125 45.8338 21.6327 44.0506C20.1404 42.2675 19.3943 39.9089 19.3943 36.9748C19.3943 34.0408 20.1404 31.6696 21.6327 29.8611C23.125 28.0527 25.4141 27.1484 28.4998 27.1484C30.4475 27.1484 31.8701 27.3508 32.768 27.7555C33.666 28.1602 34.115 28.881 34.115 29.918C34.115 30.6515 33.9126 31.1827 33.5079 31.5115C33.1032 31.8403 32.5594 32.0047 31.8765 32.0047C31.3959 32.0047 31.0165 31.9668 30.7383 31.8909C30.4601 31.815 30.1629 31.7455 29.8467 31.6823C29.5305 31.619 29.0436 31.5874 28.386 31.5874C27.5007 31.5874 26.7989 31.853 26.2804 32.3841C25.7618 32.9153 25.3951 33.5919 25.1801 34.4139C24.9651 35.2359 24.8576 36.0896 24.8576 36.9748C24.8576 37.8349 24.9399 38.6759 25.1042 39.4978C25.2686 40.3199 25.6038 40.9901 26.1096 41.5087C26.6155 42.0272 27.3869 42.2864 28.424 42.2864C29.3851 42.2864 30.0933 42.2169 30.5486 42.0777C31.0039 41.9386 31.4465 41.8691 31.8765 41.8691C32.5594 41.8691 33.1032 41.9892 33.5079 42.2295C33.9126 42.4698 34.115 42.9567 34.115 43.6902C34.115 44.7273 33.666 45.4923 32.768 45.9856C31.8701 46.4788 30.4475 46.7254 28.4998 46.7254Z" fill="#BC0051"/>
<path d="M93.7861 49.2391C92.8091 49.2391 91.9906 48.9356 91.3305 48.3286C90.6705 47.7215 90.3403 46.9754 90.3403 46.0901C90.3403 45.1543 90.6705 44.3828 91.3305 43.7758C91.9906 43.1687 92.8091 42.8652 93.7861 42.8652C94.7893 42.8652 95.6145 43.1687 96.2613 43.7758C96.9083 44.3828 97.2317 45.1543 97.2317 46.0901C97.2317 46.9754 96.9083 47.7215 96.2613 48.3286C95.6145 48.9356 94.7893 49.2391 93.7861 49.2391ZM96.6376 69.537C96.6376 71.2316 95.7135 72.0789 93.8652 72.0789C92.9675 72.0789 92.2546 71.8703 91.7266 71.4529C91.1985 71.0356 90.9345 70.3969 90.9345 69.537V55.0819C90.9345 54.2725 91.1522 53.6402 91.5879 53.1848C92.0235 52.7296 92.7563 52.502 93.7861 52.502C94.8157 52.502 95.5485 52.7296 95.9841 53.1848C96.4198 53.6402 96.6376 54.2725 96.6376 55.0819V69.537Z" fill="#8CB800"/>
<path d="M103.727 72.0789C101.826 72.0789 100.875 71.219 100.875 69.499V60.3935C100.875 57.9653 101.687 56.043 103.311 54.6265C104.935 53.2102 107.08 52.502 109.747 52.502C112.414 52.502 114.559 53.2102 116.183 54.6265C117.807 56.043 118.618 57.9653 118.618 60.3935V69.499C118.618 71.219 117.668 72.0789 115.767 72.0789C113.866 72.0789 112.915 71.219 112.915 69.499V60.697C112.915 59.5082 112.638 58.604 112.084 57.9843C111.529 57.3646 110.75 57.0547 109.747 57.0547C108.744 57.0547 107.965 57.3646 107.41 57.9843C106.856 58.604 106.578 59.5082 106.578 60.697V69.499C106.578 71.219 105.628 72.0789 103.727 72.0789Z" fill="#8CB800"/>
<path d="M131.094 72.0778C128.639 72.0778 126.823 71.5213 125.648 70.4084C124.473 69.2955 123.886 67.5882 123.886 65.2866V57.3951H122.856C121.061 57.3951 120.163 56.6236 120.163 55.0807C120.163 53.5631 121.061 52.8043 122.856 52.8043H123.886V48.7069C123.886 47.8722 124.157 47.1892 124.698 46.658C125.239 46.1269 125.945 45.8613 126.817 45.8613C127.662 45.8613 128.335 46.1079 128.837 46.6011C129.338 47.0944 129.589 47.771 129.589 48.6309V50.49C129.589 51.4258 129.431 52.1973 129.114 52.8043H132.876C134.672 52.8043 135.569 53.5631 135.569 55.0807C135.569 56.6236 134.672 57.3951 132.876 57.3951H129.589V65.4003C129.589 66.1591 129.682 66.6966 129.866 67.0128C130.051 67.329 130.355 67.487 130.777 67.487C131.332 67.487 131.748 67.4428 132.025 67.3542C132.302 67.2658 132.652 67.2215 133.074 67.2215C133.787 67.2215 134.355 67.3416 134.777 67.5819C135.2 67.8222 135.411 68.3091 135.411 69.0426C135.411 70.0796 135.068 70.8447 134.381 71.338C133.695 71.8312 132.599 72.0778 131.094 72.0778Z" fill="#8CB800"/>
<path fill-rule="evenodd" clip-rule="evenodd" d="M62.5878 8.59861C62.5878 11.1631 63.0647 13.4143 63.7455 15.2776C65.615 20.3932 70.583 23.6854 75.0587 25.4013L75.5095 25.5167C75.5316 25.5157 75.5716 25.5052 75.5909 25.5023C75.9433 25.4487 75.9757 25.2866 76.0324 25.2049C76.7046 24.2369 77.1003 18.3731 77.1003 17.1603C77.1003 13.9983 76.2301 10.9972 75.1722 8.97439C73.5908 5.95036 70.5777 3.15159 67.771 1.84138C67.2674 1.6063 66.7902 1.36755 66.2074 1.09936C63.9115 0.0422269 63.9603 0.077383 63.5566 1.70391C63.3873 2.38543 63.2326 3.07258 63.0783 3.825C62.8311 5.03018 62.5878 7.15093 62.5878 8.59861Z" fill="#8CB800"/>
<path d="M20.6848 80.6182C18.8384 80.6182 17.9152 79.6317 17.9152 77.6589V62.7106C17.9152 59.2707 18.674 56.7034 20.1916 55.0088C21.7092 53.3142 23.8338 52.4668 26.5655 52.4668C29.3477 52.4668 31.5419 53.3521 33.1481 55.1226C34.7542 56.8931 35.5572 59.4857 35.5572 62.9003C35.5572 65.1767 35.2284 66.9915 34.5708 68.3447C33.9132 69.6978 33.0026 70.678 31.8391 71.285C30.6757 71.892 29.3351 72.1956 27.8175 72.1956C26.5023 72.1956 25.421 72.0059 24.5737 71.6265C23.7263 71.247 23.0623 70.6654 22.5818 69.8812C22.7588 70.3871 22.8916 70.8803 22.9802 71.3609C23.0687 71.8414 23.1319 72.3979 23.1699 73.0302C23.2078 73.6626 23.2268 74.4719 23.2268 75.4584V77.6589C23.2268 79.6317 22.3795 80.6182 20.6848 80.6182ZM26.831 67.7566C27.8934 67.7566 28.7217 67.3835 29.3161 66.6374C29.9105 65.8912 30.2077 64.4811 30.2077 62.4071C30.2077 60.333 29.9105 58.9229 29.3161 58.1768C28.7217 57.4306 27.8934 57.0575 26.831 57.0575C25.7688 57.0575 24.9404 57.4306 24.346 58.1768C23.7516 58.9229 23.4544 60.333 23.4544 62.4071C23.4544 64.4811 23.7516 65.8912 24.346 66.6374C24.9404 67.3835 25.7688 67.7566 26.831 67.7566Z" fill="#8CB800"/>
</g>
<defs>
<clipPath id="clip0_548_190">
<rect width="136" height="81" fill="white"/>
</clipPath>
</defs>
</svg>
