<svg width="27.000000" height="27.000000" viewBox="0 0 27 27" fill="none" xmlns="http://www.w3.org/2000/svg" xmlns:xlink="http://www.w3.org/1999/xlink">
	<desc>
			Created with Pixso.
	</desc>
	<defs/>
	<path id="Vector" d="M10.16 3.17L11.57 6.69C11.94 7.6 11.77 8.63 11.14 9.38L10.39 10.29C9.5 11.35 9.58 12.91 10.55 13.88L13.11 16.44C14.08 17.42 15.64 17.49 16.7 16.6L17.61 15.85C18.36 15.22 19.39 15.06 20.3 15.42L23.82 16.82C24.83 17.23 25.5 18.21 25.5 19.3L25.49 22.97C25.49 24.36 24.36 25.5 22.97 25.5C11.11 25.5 1.5 15.88 1.5 4.02C1.5 2.63 2.63 1.5 4.02 1.5L7.69 1.5C8.78 1.5 9.76 2.16 10.16 3.17Z" stroke="#FFFFFF" stroke-opacity="1.000000" stroke-width="3.000000" stroke-linejoin="round"/>
</svg>
