<svg width="101" height="101" viewBox="0 0 101 101" fill="none" xmlns="http://www.w3.org/2000/svg">
<path fill-rule="evenodd" clip-rule="evenodd" d="M69 36.5728L70.3962 37C73.6822 30.7798 77.1443 28.1896 84.4599 28.1896C85.4572 28.1896 88.0418 28.5025 88.5765 28.2929C90.1111 27.691 92.476 23 82.8537 23C77.2079 23 72.5105 26.3054 70.4054 30.9843C69.8613 32.1937 69 34.8656 69 36.5728Z" fill="#5B391B"/>
<path fill-rule="evenodd" clip-rule="evenodd" d="M86 66.4999C86 85.5537 69.6584 101 49.5001 101C29.3416 101 13 85.5537 13 66.4999C13 47.4461 29.3416 32 49.5001 32C69.6584 32 86 47.4461 86 66.4999ZM69.7789 66.5002C69.7789 77.8263 60.6998 87.008 49.4999 87.008C38.3001 87.008 29.221 77.8263 29.221 66.5002C29.221 55.1739 38.3001 45.9923 49.4999 45.9923C60.6998 45.9923 69.7789 55.1739 69.7789 66.5002Z" fill="#BC0051"/>
<path fill-rule="evenodd" clip-rule="evenodd" d="M50 11.1157C50 14.5846 50.6572 17.6297 51.5955 20.1501C54.1718 27.0697 61.0184 31.5229 67.1864 33.8439L67.8077 34C67.8381 33.9986 67.8933 33.9844 67.9199 33.9805C68.4055 33.908 68.4502 33.6888 68.5283 33.5782C69.4547 32.2689 70 24.3372 70 22.6967C70 18.4196 68.8008 14.3602 67.3428 11.624C65.1635 7.53359 61.0111 3.74783 57.1431 1.97557C56.4491 1.65759 55.7914 1.33465 54.9882 0.97188C51.8242 -0.458051 51.8915 -0.410497 51.3351 1.78962C51.1018 2.71148 50.8886 3.64096 50.676 4.65872C50.3353 6.2889 50 9.15754 50 11.1157Z" fill="#8CB800"/>
</svg>
